<mxfile host="www.draw.io" modified="2019-12-18T08:02:50.652Z" agent="Mozilla/5.0 (Windows NT 10.0; Win64; x64) AppleWebKit/537.36 (KHTML, like Gecko) Chrome/79.0.3945.88 Safari/537.36" etag="iO6o6G8LPhb_-MpL1s0A" version="12.4.3" type="github" pages="2">
  <diagram id="gYgcCxfu6V0UUkqc5kPd" name="Page-1">
    <mxGraphModel dx="553" dy="476" grid="1" gridSize="10" guides="1" tooltips="1" connect="1" arrows="1" fold="1" page="1" pageScale="1" pageWidth="850" pageHeight="1100" math="0" shadow="0">
      <root>
        <mxCell id="0"/>
        <mxCell id="1" parent="0"/>
        <mxCell id="66_BIdSFOvUlIRjKDQOJ-6" value="" style="rounded=0;whiteSpace=wrap;html=1;fillColor=#99CCFF;" parent="1" vertex="1">
          <mxGeometry x="50" y="170" width="380" height="150" as="geometry"/>
        </mxCell>
        <mxCell id="66_BIdSFOvUlIRjKDQOJ-8" style="edgeStyle=orthogonalEdgeStyle;rounded=0;orthogonalLoop=1;jettySize=auto;html=1;entryX=0.5;entryY=0;entryDx=0;entryDy=0;" parent="1" source="66_BIdSFOvUlIRjKDQOJ-14" target="66_BIdSFOvUlIRjKDQOJ-2" edge="1">
          <mxGeometry relative="1" as="geometry"/>
        </mxCell>
        <mxCell id="66_BIdSFOvUlIRjKDQOJ-1" value="Create a Driver" style="rounded=0;whiteSpace=wrap;html=1;" parent="1" vertex="1">
          <mxGeometry x="80" y="30" width="120" height="40" as="geometry"/>
        </mxCell>
        <mxCell id="66_BIdSFOvUlIRjKDQOJ-9" style="edgeStyle=orthogonalEdgeStyle;rounded=0;orthogonalLoop=1;jettySize=auto;html=1;exitX=0.5;exitY=1;exitDx=0;exitDy=0;entryX=0.5;entryY=0;entryDx=0;entryDy=0;" parent="1" source="66_BIdSFOvUlIRjKDQOJ-2" target="66_BIdSFOvUlIRjKDQOJ-3" edge="1">
          <mxGeometry relative="1" as="geometry"/>
        </mxCell>
        <mxCell id="66_BIdSFOvUlIRjKDQOJ-2" value="Router" style="rounded=0;whiteSpace=wrap;html=1;" parent="1" vertex="1">
          <mxGeometry x="80" y="190" width="120" height="40" as="geometry"/>
        </mxCell>
        <mxCell id="66_BIdSFOvUlIRjKDQOJ-10" style="edgeStyle=orthogonalEdgeStyle;rounded=0;orthogonalLoop=1;jettySize=auto;html=1;" parent="1" source="66_BIdSFOvUlIRjKDQOJ-3" target="66_BIdSFOvUlIRjKDQOJ-5" edge="1">
          <mxGeometry relative="1" as="geometry"/>
        </mxCell>
        <mxCell id="66_BIdSFOvUlIRjKDQOJ-3" value="Controller" style="rounded=0;whiteSpace=wrap;html=1;" parent="1" vertex="1">
          <mxGeometry x="80" y="250" width="120" height="40" as="geometry"/>
        </mxCell>
        <mxCell id="66_BIdSFOvUlIRjKDQOJ-4" value="Model" style="rounded=0;whiteSpace=wrap;html=1;" parent="1" vertex="1">
          <mxGeometry x="280" y="250" width="120" height="40" as="geometry"/>
        </mxCell>
        <mxCell id="66_BIdSFOvUlIRjKDQOJ-5" value="MongoDB" style="rounded=0;whiteSpace=wrap;html=1;" parent="1" vertex="1">
          <mxGeometry x="80" y="360" width="120" height="40" as="geometry"/>
        </mxCell>
        <mxCell id="66_BIdSFOvUlIRjKDQOJ-12" value="" style="endArrow=classic;startArrow=classic;html=1;entryX=1;entryY=0.5;entryDx=0;entryDy=0;exitX=0;exitY=0.5;exitDx=0;exitDy=0;" parent="1" source="66_BIdSFOvUlIRjKDQOJ-4" target="66_BIdSFOvUlIRjKDQOJ-3" edge="1">
          <mxGeometry width="50" height="50" relative="1" as="geometry">
            <mxPoint x="250" y="380" as="sourcePoint"/>
            <mxPoint x="300" y="330" as="targetPoint"/>
          </mxGeometry>
        </mxCell>
        <mxCell id="66_BIdSFOvUlIRjKDQOJ-13" value="&lt;b&gt;&lt;font style=&quot;font-size: 18px&quot;&gt;Express&lt;/font&gt;&lt;/b&gt;" style="text;html=1;strokeColor=none;fillColor=none;align=center;verticalAlign=middle;whiteSpace=wrap;rounded=0;" parent="1" vertex="1">
          <mxGeometry x="340" y="140" width="90" height="20" as="geometry"/>
        </mxCell>
        <mxCell id="66_BIdSFOvUlIRjKDQOJ-14" value="POST to /api/drivers" style="text;html=1;strokeColor=none;fillColor=none;align=center;verticalAlign=middle;whiteSpace=wrap;rounded=0;" parent="1" vertex="1">
          <mxGeometry x="70" y="110" width="140" height="20" as="geometry"/>
        </mxCell>
        <mxCell id="66_BIdSFOvUlIRjKDQOJ-15" style="edgeStyle=orthogonalEdgeStyle;rounded=0;orthogonalLoop=1;jettySize=auto;html=1;entryX=0.5;entryY=0;entryDx=0;entryDy=0;" parent="1" source="66_BIdSFOvUlIRjKDQOJ-1" target="66_BIdSFOvUlIRjKDQOJ-14" edge="1">
          <mxGeometry relative="1" as="geometry">
            <mxPoint x="140" y="70" as="sourcePoint"/>
            <mxPoint x="140" y="190" as="targetPoint"/>
          </mxGeometry>
        </mxCell>
      </root>
    </mxGraphModel>
  </diagram>
  <diagram id="U2LdfmBPYycbqX1hUvOr" name="Page-2">
    <mxGraphModel dx="461" dy="397" grid="1" gridSize="10" guides="1" tooltips="1" connect="1" arrows="1" fold="1" page="1" pageScale="1" pageWidth="850" pageHeight="1100" math="0" shadow="0">
      <root>
        <mxCell id="Hs7-k4Qra2NL3V3eCB38-0"/>
        <mxCell id="Hs7-k4Qra2NL3V3eCB38-1" parent="Hs7-k4Qra2NL3V3eCB38-0"/>
        <mxCell id="Hs7-k4Qra2NL3V3eCB38-8" style="edgeStyle=orthogonalEdgeStyle;rounded=0;orthogonalLoop=1;jettySize=auto;html=1;entryX=0;entryY=0.25;entryDx=0;entryDy=0;" edge="1" parent="Hs7-k4Qra2NL3V3eCB38-1" source="Hs7-k4Qra2NL3V3eCB38-2" target="Hs7-k4Qra2NL3V3eCB38-4">
          <mxGeometry relative="1" as="geometry"/>
        </mxCell>
        <mxCell id="Hs7-k4Qra2NL3V3eCB38-2" value="req" style="rounded=0;whiteSpace=wrap;html=1;" vertex="1" parent="Hs7-k4Qra2NL3V3eCB38-1">
          <mxGeometry x="60" y="85" width="120" height="50" as="geometry"/>
        </mxCell>
        <mxCell id="Hs7-k4Qra2NL3V3eCB38-3" value="res" style="rounded=0;whiteSpace=wrap;html=1;" vertex="1" parent="Hs7-k4Qra2NL3V3eCB38-1">
          <mxGeometry x="60" y="225" width="120" height="50" as="geometry"/>
        </mxCell>
        <mxCell id="Hs7-k4Qra2NL3V3eCB38-9" style="edgeStyle=orthogonalEdgeStyle;rounded=0;orthogonalLoop=1;jettySize=auto;html=1;entryX=1;entryY=0.5;entryDx=0;entryDy=0;exitX=0;exitY=0.75;exitDx=0;exitDy=0;" edge="1" parent="Hs7-k4Qra2NL3V3eCB38-1" source="Hs7-k4Qra2NL3V3eCB38-4" target="Hs7-k4Qra2NL3V3eCB38-3">
          <mxGeometry relative="1" as="geometry"/>
        </mxCell>
        <mxCell id="Hs7-k4Qra2NL3V3eCB38-4" value="" style="rounded=0;whiteSpace=wrap;html=1;" vertex="1" parent="Hs7-k4Qra2NL3V3eCB38-1">
          <mxGeometry x="260" y="40" width="110" height="280" as="geometry"/>
        </mxCell>
        <mxCell id="Hs7-k4Qra2NL3V3eCB38-5" value="&lt;b&gt;Express&lt;/b&gt;" style="text;html=1;strokeColor=none;fillColor=none;align=center;verticalAlign=middle;whiteSpace=wrap;rounded=0;" vertex="1" parent="Hs7-k4Qra2NL3V3eCB38-1">
          <mxGeometry x="295" y="20" width="40" height="20" as="geometry"/>
        </mxCell>
        <mxCell id="Hs7-k4Qra2NL3V3eCB38-6" value="Incoming Request" style="text;html=1;strokeColor=none;fillColor=none;align=center;verticalAlign=middle;whiteSpace=wrap;rounded=0;fontStyle=1" vertex="1" parent="Hs7-k4Qra2NL3V3eCB38-1">
          <mxGeometry x="40" y="65" width="110" height="20" as="geometry"/>
        </mxCell>
        <mxCell id="Hs7-k4Qra2NL3V3eCB38-7" value="Outgoing Response" style="text;html=1;strokeColor=none;fillColor=none;align=center;verticalAlign=middle;whiteSpace=wrap;rounded=0;fontStyle=1" vertex="1" parent="Hs7-k4Qra2NL3V3eCB38-1">
          <mxGeometry x="30" y="204" width="120" height="20" as="geometry"/>
        </mxCell>
      </root>
    </mxGraphModel>
  </diagram>
</mxfile>
